<?xml version="1.0" standalone="no"?>
<!DOCTYPE svg PUBLIC "-//W3C//DTD SVG 20010904//EN"
 "http://www.w3.org/TR/2001/REC-SVG-20010904/DTD/svg10.dtd">
<svg version="1.0" xmlns="http://www.w3.org/2000/svg"
 width="203.000000pt" height="248.000000pt" viewBox="0 0 203.000000 248.000000"
 preserveAspectRatio="xMidYMid meet">
<metadata>
Created by potrace 1.13, written by Peter Selinger 2001-2015
</metadata>
<g transform="translate(0.000000,248.000000) scale(0.100000,-0.100000)"
fill="#000000" stroke="none">
<path d="M1413 1950 c-22 -5 -61 -18 -85 -30 -79 -41 -277 -263 -403 -452
l-38 -58 -40 23 c-22 12 -68 48 -102 80 -35 31 -67 57 -72 57 -5 0 -42 21 -83
46 -192 119 -287 134 -330 53 -20 -36 1 -42 35 -9 l32 31 44 -36 c24 -20 65
-50 91 -68 69 -48 290 -226 316 -256 17 -19 21 -34 17 -56 -3 -16 -58 -121
-122 -233 -131 -231 -184 -345 -191 -414 -4 -45 -3 -48 18 -48 22 0 83 45 227
166 35 29 60 55 55 57 -4 3 -29 -1 -57 -8 -27 -7 -52 -11 -54 -9 -2 2 1 16 8
31 18 40 189 325 215 358 l22 28 150 -108 c82 -60 192 -141 244 -180 52 -40
124 -89 159 -109 36 -21 87 -58 114 -82 37 -33 57 -44 82 -44 40 0 61 21 46
47 -21 40 -142 145 -241 211 -58 39 -175 122 -260 186 -85 63 -165 122 -178
131 -30 21 -44 59 -35 93 8 34 162 263 247 369 72 89 114 125 194 168 65 35
82 53 61 66 -16 10 -28 10 -86 -1z"/>
</g>
</svg>
