<?xml version="1.0" standalone="no"?>
<!DOCTYPE svg PUBLIC "-//W3C//DTD SVG 20010904//EN"
 "http://www.w3.org/TR/2001/REC-SVG-20010904/DTD/svg10.dtd">
<svg version="1.0" xmlns="http://www.w3.org/2000/svg"
 width="239.000000pt" height="211.000000pt" viewBox="0 0 239.000000 211.000000"
 preserveAspectRatio="xMidYMid meet">
<metadata>
Created by potrace 1.13, written by Peter Selinger 2001-2015
</metadata>
<g transform="translate(0.000000,211.000000) scale(0.100000,-0.100000)"
fill="#000000" stroke="none">
<path d="M838 1840 c-94 -17 -92 -39 8 -68 41 -13 74 -27 72 -32 -2 -5 -37
-47 -79 -92 -121 -134 -150 -183 -245 -422 -120 -300 -106 -548 42 -742 60
-78 114 -115 221 -152 132 -46 248 -38 463 30 135 42 312 130 359 177 98 98
191 273 222 417 43 205 35 269 -53 400 -48 72 -220 250 -293 303 -91 66 -249
132 -399 166 -84 19 -254 27 -318 15z m395 -155 c139 -52 286 -136 365 -209
104 -96 195 -262 195 -355 0 -65 -42 -216 -86 -311 -47 -101 -165 -214 -287
-274 -116 -58 -286 -96 -426 -96 -82 0 -94 3 -135 28 -121 78 -211 240 -211
382 -1 139 101 421 240 661 33 58 64 118 68 132 5 23 12 27 40 27 28 0 36 5
45 26 9 26 12 27 67 21 32 -4 88 -18 125 -32z"/>
</g>
</svg>
